<?xml version="1.0" encoding="UTF-8"?>
<!DOCTYPE svg PUBLIC "-//W3C//DTD SVG 1.1//EN" "http://www.w3.org/Graphics/SVG/1.1/DTD/svg11.dtd">
<!-- Creator: CorelDRAW 2017 -->
<svg xmlns="http://www.w3.org/2000/svg" xml:space="preserve" width="160.867mm" height="105.833mm" version="1.1" style="shape-rendering:geometricPrecision; text-rendering:geometricPrecision; image-rendering:optimizeQuality; fill-rule:evenodd; clip-rule:evenodd"
viewBox="0 0 16087 10583"
 xmlns:xlink="http://www.w3.org/1999/xlink">
 <defs>
  <style type="text/css">
   <![CDATA[
    .fil2 {fill:#FEFEFE}
    .fil0 {fill:#0098DA}
    .fil4 {fill:#0098DA}
    .fil6 {fill:#373435;fill-rule:nonzero}
    .fil1 {fill:#373435;fill-opacity:0.101961}
    .fil5 {fill:#373435;fill-opacity:0.101961}
    .fil3 {fill:url(#id0)}
   ]]>
  </style>
  <radialGradient id="id0" gradientUnits="userSpaceOnUse" gradientTransform="matrix(1.11384 1.11386 -1.11385 1.11385 4763 -11444)" cx="9735" cy="5271" r="2196" fx="9735" fy="5271">
   <stop offset="0" style="stop-opacity:1; stop-color:#FEFEFE"/>
   <stop offset="1" style="stop-opacity:1; stop-color:#F1F1F2"/>
  </radialGradient>
 </defs>
 <g id="Camada_x0020_1">
  <metadata id="CorelCorpID_0Corel-Layer"/>
  <g id="_831013776">
   <path class="fil0" d="M5752 4275l1276 0c176,0 320,144 320,320l0 1276c0,176 -144,320 -320,320l-1276 0c-176,0 -320,-144 -320,-320l0 -1276c0,-176 144,-320 320,-320z"/>
   <path class="fil1" d="M5533 6105l1728 -1728c54,57 86,134 86,218l0 1276c0,176 -144,320 -320,320l-1276 0c-84,0 -161,-33 -218,-86z"/>
   <g>
    <path class="fil2" d="M6683 5809c-419,-65 -249,-39 -717,-111 0,-310 0,-619 0,-929 459,-71 293,-46 717,-111 0,384 0,768 0,1152z"/>
    <path class="fil2" d="M6813 5774l-109 -17 48 -7c0,-344 0,-689 0,-1033l-48 -7 109 -17c0,361 0,721 0,1082z"/>
   </g>
   <path class="fil1" d="M6683 4657l0 1152c-419,-65 -249,-39 -717,-111l494 494 568 0c176,0 320,-144 320,-320l0 -644 -534 -534 0 1082 -109 -17 48 -7 0 -1023 -70 -70z"/>
  </g>
  <g id="_831011568">
   <polygon class="fil3" points="8739,4275 10655,4275 10655,6191 8739,6191 "/>
   <g id="_602628864">
    <path class="fil4" d="M9990 5809c-418,-65 -249,-38 -717,-112 0,-310 0,-619 0,-929 459,-72 293,-46 717,-112 0,384 0,768 0,1152l0 0z"/>
    <path class="fil4" d="M10121 5774l-109 -17 48 -7c0,-345 0,-689 0,-1034l-48 -7 109 -17c0,361 0,721 0,1082l0 0z"/>
   </g>
   <path class="fil5" d="M9990 4657l0 1152c-418,-65 -249,-38 -717,-112l494 494 889 0 0 -965 -534 -534 0 1082 -109 -17 48 -7 0 -1023 -70 -70 0 0z"/>
  </g>
  <path class="fil6" d="M5555 3970l-16 -46 -63 0 -16 46 -28 0 61 -165 29 0 61 165 -29 0zm-23 -69l-15 -45c-1,-3 -3,-8 -5,-14 -2,-6 -3,-11 -4,-14 -2,9 -5,19 -9,30l-15 43 48 0zm134 71c-16,0 -28,-6 -37,-17l-2 0c1,10 2,17 2,19l0 51 -26 0 0 -179 21 0c1,2 2,8 4,17l1 0c8,-13 21,-19 37,-19 16,0 28,6 36,17 9,11 13,27 13,47 0,20 -4,36 -13,48 -9,11 -21,17 -36,17zm-6 -107c-11,0 -18,3 -23,9 -5,6 -7,16 -7,29l0 4c0,15 2,26 7,33 5,7 13,10 23,10 9,0 16,-4 21,-11 5,-7 7,-18 7,-32 0,-14 -2,-24 -7,-32 -5,-7 -12,-11 -22,-11zm150 107c-16,0 -28,-6 -37,-17l-2 0c1,10 2,17 2,19l0 51 -26 0 0 -179 21 0c1,2 2,8 4,17l1 0c8,-13 21,-19 37,-19 16,0 28,6 36,17 9,11 13,27 13,47 0,20 -4,36 -13,48 -9,11 -21,17 -36,17zm-6 -107c-11,0 -18,3 -23,9 -5,6 -7,16 -7,29l0 4c0,15 2,26 7,33 5,7 13,10 23,10 9,0 16,-4 21,-11 5,-7 7,-18 7,-32 0,-14 -2,-24 -7,-32 -5,-7 -12,-11 -22,-11z"/>
  <path class="fil6" d="M8739 3997l0 -164 27 0 0 164 -27 0zm117 2c-19,0 -33,-5 -43,-16 -10,-11 -15,-27 -15,-47 0,-21 5,-37 15,-48 10,-11 25,-17 44,-17 13,0 25,2 35,7l-8 21c-11,-4 -20,-7 -28,-7 -21,0 -32,14 -32,43 0,14 3,24 8,31 5,7 13,11 24,11 12,0 23,-3 33,-9l0 23c-5,3 -10,5 -15,6 -5,1 -12,2 -20,2zm174 -65c0,20 -5,36 -16,48 -10,11 -25,17 -43,17 -12,0 -22,-3 -31,-8 -9,-5 -16,-13 -21,-23 -5,-10 -7,-21 -7,-34 0,-20 5,-36 15,-47 10,-11 25,-17 44,-17 18,0 32,6 43,17 10,12 16,27 16,47zm-90 0c0,29 11,43 32,43 21,0 31,-14 31,-43 0,-28 -11,-43 -32,-43 -11,0 -19,4 -24,11 -5,7 -7,18 -7,32z"/>
 </g>
</svg>
