<?xml version="1.0" encoding="UTF-8"?>
<!DOCTYPE svg PUBLIC "-//W3C//DTD SVG 1.1//EN" "http://www.w3.org/Graphics/SVG/1.1/DTD/svg11.dtd">
<!-- Creator: CorelDRAW 2017 -->
<svg xmlns="http://www.w3.org/2000/svg" xml:space="preserve" width="160.867mm" height="105.833mm" version="1.1" style="shape-rendering:geometricPrecision; text-rendering:geometricPrecision; image-rendering:optimizeQuality; fill-rule:evenodd; clip-rule:evenodd"
viewBox="0 0 16087 10583"
 xmlns:xlink="http://www.w3.org/1999/xlink">
 <defs>
  <style type="text/css">
   <![CDATA[
    .fil1 {fill:#0098DA}
    .fil0 {fill:#45455A;fill-rule:nonzero}
   ]]>
  </style>
 </defs>
 <g id="Camada_x0020_1">
  <metadata id="CorelCorpID_0Corel-Layer"/>
  <path class="fil0" d="M7728 5975c-13,0 -23,5 -30,14 -7,10 -10,23 -10,40 0,36 13,53 40,53 11,0 25,-3 41,-8l0 28c-13,5 -28,8 -44,8 -23,0 -41,-7 -53,-21 -12,-14 -18,-34 -18,-61 0,-17 3,-31 9,-44 6,-12 15,-22 26,-29 11,-7 25,-10 40,-10 16,0 31,4 47,11l-11 28c-6,-3 -12,-5 -18,-7 -6,-2 -12,-3 -18,-3zm218 72c0,12 2,21 6,27 4,6 10,9 19,9 9,0 15,-3 19,-9 4,-6 6,-15 6,-27 0,-12 -2,-21 -6,-27 -4,-6 -10,-9 -19,-9 -9,0 -15,3 -19,9 -4,6 -6,15 -6,27zm84 0c0,20 -5,35 -16,47 -10,11 -25,17 -44,17 -12,0 -22,-3 -31,-8 -9,-5 -16,-12 -21,-22 -5,-10 -7,-21 -7,-34 0,-20 5,-35 16,-47 10,-11 25,-17 44,-17 12,0 22,3 31,8 9,5 16,12 21,22 5,10 7,21 7,34zm256 61l-33 0 0 -71c0,-9 -1,-15 -4,-20 -3,-4 -8,-7 -14,-7 -9,0 -15,3 -19,9 -4,6 -6,17 -6,31l0 57 -33 0 0 -122 25 0 4 16 2 0c3,-6 8,-10 14,-13 6,-3 13,-5 21,-5 18,0 31,6 37,18l3 0c3,-6 8,-10 14,-13 6,-3 14,-5 22,-5 14,0 24,4 31,11 7,7 11,18 11,34l0 80 -33 0 0 -71c0,-9 -1,-15 -4,-20 -3,-4 -8,-7 -14,-7 -8,0 -14,3 -18,9 -4,6 -6,15 -6,28l0 61zm339 0l-33 0 0 -71c0,-9 -1,-15 -4,-20 -3,-4 -8,-7 -14,-7 -9,0 -15,3 -19,9 -4,6 -6,17 -6,31l0 57 -33 0 0 -122 25 0 4 16 2 0c3,-6 8,-10 14,-13 6,-3 13,-5 21,-5 18,0 31,6 37,18l3 0c3,-6 8,-10 14,-13 6,-3 14,-5 22,-5 14,0 24,4 31,11 7,7 11,18 11,34l0 80 -33 0 0 -71c0,-9 -1,-15 -4,-20 -3,-4 -8,-7 -14,-7 -8,0 -14,3 -18,9 -4,6 -6,15 -6,28l0 61zm316 0l-4 -16 -2 0c-4,6 -9,10 -15,13 -7,3 -14,5 -22,5 -14,0 -25,-4 -32,-12 -7,-8 -11,-19 -11,-33l0 -80 33 0 0 71c0,9 2,15 5,20 3,4 8,7 15,7 9,0 16,-3 20,-9 4,-6 6,-17 6,-31l0 -57 33 0 0 122 -26 0zm292 0l-33 0 0 -71c0,-9 -2,-15 -5,-20 -3,-4 -8,-7 -15,-7 -9,0 -16,3 -20,9 -4,6 -6,17 -6,31l0 57 -33 0 0 -122 25 0 4 16 2 0c4,-6 9,-10 15,-13 6,-3 14,-5 22,-5 14,0 25,4 32,12 7,8 11,19 11,33l0 80zm152 -154c0,-11 6,-16 18,-16 12,0 18,5 18,16 0,5 -2,9 -5,12 -3,3 -8,4 -14,4 -12,0 -18,-5 -18,-16zm35 154l-33 0 0 -122 33 0 0 122zm205 -24c6,0 13,-1 21,-4l0 25c-8,4 -18,6 -31,6 -13,0 -23,-3 -29,-10 -6,-7 -9,-17 -9,-30l0 -59 -16 0 0 -14 18 -11 10 -26 21 0 0 26 34 0 0 25 -34 0 0 59c0,5 1,8 4,10 3,2 6,3 11,3zm147 -98l36 0 23 69c2,6 3,13 4,21l1 0c1,-7 2,-15 5,-21l23 -69 36 0 -52 138c-5,13 -11,22 -20,29 -9,6 -19,10 -31,10 -6,0 -11,-1 -17,-2l0 -26c4,1 8,1 13,1 6,0 11,-2 15,-5 4,-4 8,-9 10,-16l2 -6 -48 -121zm416 122l-92 0 0 -160 92 0 0 28 -58 0 0 35 54 0 0 28 -54 0 0 41 58 0 0 28zm188 2c-14,0 -26,-6 -34,-17 -8,-11 -12,-27 -12,-46 0,-20 4,-36 12,-47 8,-11 20,-17 34,-17 15,0 27,6 35,18l1 0c-2,-9 -3,-17 -3,-24l0 -39 33 0 0 170 -26 0 -6 -16 -1 0c-8,12 -19,18 -35,18zm12 -27c9,0 15,-2 19,-7 4,-5 6,-13 6,-25l0 -4c0,-13 -2,-22 -6,-28 -4,-6 -11,-9 -20,-9 -7,0 -13,3 -17,9 -4,6 -6,15 -6,27 0,12 2,21 6,27 4,6 10,9 18,9zm209 -129c0,-11 6,-16 18,-16 12,0 18,5 18,16 0,5 -2,9 -5,12 -3,3 -8,4 -14,4 -12,0 -18,-5 -18,-16zm35 154l-33 0 0 -122 33 0 0 122zm205 -24c6,0 13,-1 21,-4l0 25c-8,4 -18,6 -31,6 -13,0 -23,-3 -29,-10 -6,-7 -9,-17 -9,-30l0 -59 -16 0 0 -14 18 -11 10 -26 21 0 0 26 34 0 0 25 -34 0 0 59c0,5 1,8 4,10 3,2 6,3 11,3zm163 -129c0,-11 6,-16 18,-16 12,0 18,5 18,16 0,5 -2,9 -5,12 -3,3 -8,4 -14,4 -12,0 -18,-5 -18,-16zm35 154l-33 0 0 -122 33 0 0 122zm180 -61c0,12 2,21 6,27 4,6 10,9 19,9 9,0 15,-3 19,-9 4,-6 6,-15 6,-27 0,-12 -2,-21 -6,-27 -4,-6 -10,-9 -19,-9 -9,0 -15,3 -19,9 -4,6 -6,15 -6,27zm84 0c0,20 -5,35 -16,47 -10,11 -25,17 -44,17 -12,0 -22,-3 -31,-8 -9,-5 -16,-12 -21,-22 -5,-10 -7,-21 -7,-34 0,-20 5,-35 16,-47 10,-11 25,-17 44,-17 12,0 22,3 31,8 9,5 16,12 21,22 5,10 7,21 7,34zm259 61l-33 0 0 -71c0,-9 -2,-15 -5,-20 -3,-4 -8,-7 -15,-7 -9,0 -16,3 -20,9 -4,6 -6,17 -6,31l0 57 -33 0 0 -122 25 0 4 16 2 0c4,-6 9,-10 15,-13 6,-3 14,-5 22,-5 14,0 25,4 32,12 7,8 11,19 11,33l0 80z"/>
  <g id="_1069706944">
   <g>
    <path class="fil1" d="M5436 6020c-529,-82 -314,-49 -906,-141 0,-392 0,-783 0,-1175 580,-90 371,-58 906,-141 0,485 0,971 0,1456z"/>
    <path class="fil1" d="M5601 5975l-137 -21 60 -9c0,-435 0,-871 0,-1306l-60 -9 137 -21c0,456 0,912 0,1368z"/>
   </g>
   <path class="fil0" d="M5778 5754l0 -881 144 0 0 757 373 0 0 123 -517 0zm795 0l-141 0 0 -666 141 0 0 666zm-150 -842c0,-25 7,-45 21,-58 14,-14 34,-21 59,-21 25,0 44,7 58,21 14,14 21,33 21,58 0,24 -7,43 -21,57 -14,14 -33,21 -58,21 -26,0 -45,-7 -59,-21 -14,-14 -21,-33 -21,-57zm692 164c83,0 148,30 194,90 46,60 69,145 69,254 0,109 -23,194 -70,255 -47,61 -112,91 -196,91 -84,0 -150,-30 -196,-91l-10 0 -26 79 -106 0 0 -937 142 0 0 223c0,16 -1,41 -2,74 -2,32 -3,53 -4,62l6 0c45,-66 111,-100 199,-100zm-37 116c-57,0 -98,17 -123,50 -25,34 -38,90 -39,168l0 10c0,81 13,140 38,176 26,36 68,54 126,54 50,0 88,-20 114,-60 26,-40 39,-97 39,-172 0,-151 -52,-227 -155,-227zm803 -116c29,0 52,2 71,6l-14 132c-20,-5 -41,-7 -62,-7 -57,0 -102,19 -138,55 -35,37 -53,85 -53,144l0 348 -142 0 0 -666 111 0 19 117 7 0c22,-40 51,-71 86,-95 36,-23 74,-35 115,-35zm460 691c-104,0 -185,-30 -243,-91 -58,-60 -88,-144 -88,-250 0,-109 27,-194 81,-257 54,-62 129,-93 223,-93 88,0 157,27 208,80 51,53 76,127 76,221l0 76 -444 0c2,65 19,114 52,149 33,35 79,52 139,52 39,0 76,-4 110,-11 34,-7 71,-20 109,-37l0 115c-35,16 -69,28 -105,35 -35,7 -76,10 -121,10zm-26 -583c-45,0 -81,14 -108,43 -27,29 -43,70 -49,125l302 0c-1,-55 -14,-97 -40,-125 -26,-28 -61,-43 -106,-43zm843 -231c-97,0 -173,32 -229,97 -56,65 -84,153 -84,265 0,115 27,204 81,267 54,63 131,94 231,94 61,0 131,-11 210,-33l0 90c-61,23 -136,35 -226,35 -130,0 -230,-39 -300,-118 -71,-79 -106,-191 -106,-336 0,-91 17,-170 51,-239 34,-68 83,-121 147,-158 64,-37 139,-56 226,-56 93,0 173,17 242,50l-43 88c-67,-31 -133,-47 -200,-47zm486 802l-100 0 0 -937 100 0 0 937zm618 0l-20 -94 -5 0c-33,41 -66,69 -98,84 -33,15 -74,22 -123,22 -66,0 -117,-17 -154,-51 -37,-34 -56,-82 -56,-144 0,-133 107,-203 320,-210l112 -4 0 -41c0,-52 -11,-90 -33,-115 -22,-25 -58,-37 -107,-37 -55,0 -117,17 -187,51l-31 -76c32,-18 68,-32 107,-42 39,-10 78,-15 117,-15 79,0 137,17 175,52 38,35 57,91 57,168l0 451 -74 0zm-226 -70c62,0 111,-17 147,-51 36,-34 53,-82 53,-143l0 -60 -100 4c-79,3 -137,15 -172,37 -35,22 -53,56 -53,102 0,36 11,64 33,82 22,19 52,28 92,28zm932 -110c0,61 -23,109 -69,142 -46,33 -110,50 -193,50 -87,0 -156,-14 -205,-42l0 -93c32,16 66,29 102,38 36,9 71,14 105,14 52,0 92,-8 120,-25 28,-17 42,-42 42,-76 0,-26 -11,-48 -34,-66 -22,-18 -66,-40 -130,-65 -61,-23 -105,-43 -131,-60 -26,-17 -45,-36 -58,-58 -13,-22 -19,-47 -19,-78 0,-54 22,-96 66,-127 44,-31 104,-47 180,-47 71,0 140,14 208,43l-36 81c-66,-27 -126,-41 -180,-41 -47,0 -83,7 -107,22 -24,15 -36,35 -36,61 0,18 5,33 14,45 9,12 24,24 44,36 20,11 59,28 116,49 78,29 131,57 159,86 28,29 41,65 41,109zm588 0c0,61 -23,109 -69,142 -46,33 -110,50 -193,50 -87,0 -156,-14 -205,-42l0 -93c32,16 66,29 102,38 36,9 71,14 105,14 52,0 92,-8 120,-25 28,-17 42,-42 42,-76 0,-26 -11,-48 -33,-66 -22,-18 -66,-40 -130,-65 -61,-23 -105,-43 -131,-60 -26,-17 -45,-36 -58,-58 -13,-22 -19,-47 -19,-78 0,-54 22,-96 66,-127 44,-31 104,-47 180,-47 71,0 140,14 208,43l-36 81c-66,-27 -126,-41 -180,-41 -47,0 -83,7 -107,22 -24,15 -36,35 -36,61 0,18 5,33 14,45 9,12 24,24 44,36 20,11 59,28 116,49 78,29 131,57 159,86 28,29 41,65 41,109z"/>
   <path class="fil0" d="M11468 4915l-10 0c-7,0 -12,-2 -15,-5 -3,-3 -5,-8 -5,-14 0,-7 2,-11 5,-14 3,-3 9,-4 16,-4l9 0 0 36zm-56 -19c0,16 7,26 21,32l-33 55 29 0 27 -48 12 0 0 48 26 0 0 -125 -36 0c-16,0 -28,3 -35,9 -7,6 -11,16 -11,28zm146 25c0,-18 -5,-36 -14,-52 -9,-16 -22,-29 -38,-38 -16,-9 -33,-14 -52,-14 -18,0 -36,5 -52,14 -16,9 -29,22 -38,38 -9,16 -14,33 -14,52 0,18 4,35 13,51 9,16 21,29 38,38 16,10 34,14 53,14 19,0 37,-5 53,-14 16,-10 29,-22 38,-38 9,-16 13,-33 13,-51zm-17 0c0,16 -4,30 -12,44 -8,13 -18,24 -32,32 -13,8 -28,12 -43,12 -16,0 -30,-4 -44,-12 -13,-8 -24,-18 -32,-32 -8,-13 -12,-28 -12,-43 0,-15 4,-30 12,-43 8,-13 18,-24 32,-32 13,-8 28,-12 43,-12 15,0 30,4 43,11 13,8 24,18 32,32 8,13 12,28 12,44z"/>
  </g>
 </g>
</svg>
